HIERARCHY
ROOT Hips
{
	OFFSET	0	0	0
	CHANNELS 6  Xposition Yposition Zposition Xrotation Yrotation Zrotation
	JOINT Spine
	{
		OFFSET	0	7.00908	1.40711
		CHANNELS 3  Xrotation Yrotation Zrotation
		JOINT Spine1
		{
			OFFSET	0	11.9997	-2.14281
			CHANNELS 3  Xrotation Yrotation Zrotation
			JOINT Spine2
			{
				OFFSET	0	9.09621	0.974976
				CHANNELS 3  Xrotation Yrotation Zrotation
				JOINT Spine3
				{
					OFFSET	0	10.8855	3.23564
					CHANNELS 3  Xrotation Yrotation Zrotation
					JOINT Spine4
					{
						OFFSET	0	16.1139	-1.64996
						CHANNELS 3  Xrotation Yrotation Zrotation
						JOINT Neck
						{
							OFFSET	0	7.69267	-5.38915
							CHANNELS 3  Xrotation Yrotation Zrotation
							JOINT Head
							{
								OFFSET	0	9.23549	-2.76422
								CHANNELS 3  Xrotation Yrotation Zrotation
								End Site
								{
									OFFSET	0	19.2638	-0.93212
								}
							}
						}
					}
					JOINT LeftShoulder
					{
						OFFSET	-4.62846	19.5852	-9.23549
						CHANNELS 3  Xrotation Yrotation Zrotation
						JOINT LeftArm
						{
							OFFSET	-10.1082	-2.76422	3.54636
							CHANNELS 3  Xrotation Yrotation Zrotation
							JOINT LeftForeArm
							{
								OFFSET	-30.9178	-1.41114	2.20688
								CHANNELS 3  Xrotation Yrotation Zrotation
								JOINT LeftHand
								{
									OFFSET	-25.989	-1.79599	1.85507
									CHANNELS 3  Xrotation Yrotation Zrotation
									End Site
									{
										OFFSET	-9.4847	-0.655447	0.676963
									}
								}
							}
						}
					}
					JOINT RightShoulder
					{
						OFFSET	4.62846	19.5852	-9.23549
						CHANNELS 3  Xrotation Yrotation Zrotation
						JOINT RightArm
						{
							OFFSET	10.1082	-2.76422	3.54636
							CHANNELS 3  Xrotation Yrotation Zrotation
							JOINT RightForeArm
							{
								OFFSET	30.9178	-1.41114	2.20688
								CHANNELS 3  Xrotation Yrotation Zrotation
								JOINT RightHand
								{
									OFFSET	25.989	-1.79599	1.85507
									CHANNELS 3  Xrotation Yrotation Zrotation
									End Site
									{
										OFFSET	9.4847	-0.655447	0.676963
									}
								}
							}
						}
					}
				}
			}
		}
	}
	JOINT LeftUpLeg
	{
		OFFSET	-9.51492	-3.50454	-0.703555
		CHANNELS 3  Xrotation Yrotation Zrotation
		JOINT LeftLeg
		{
			OFFSET	-2.15663	-42.2584	-0.660591
			CHANNELS 3  Xrotation Yrotation Zrotation
			JOINT LeftFoot
			{
				OFFSET	-2.11138	-38.9194	3.34707
				CHANNELS 3  Xrotation Yrotation Zrotation
				JOINT LeftToeBase
				{
					OFFSET	0	-4.8091	-12.773
					CHANNELS 3  Xrotation Yrotation Zrotation
					End Site
					{
						OFFSET	0	-1.92364	-7.69456
					}
				}
			}
		}
	}
	JOINT RightUpLeg
	{
		OFFSET	9.51492	-3.50454	-0.703555
		CHANNELS 3  Xrotation Yrotation Zrotation
		JOINT RightLeg
		{
			OFFSET	2.15663	-42.2584	-0.660591
			CHANNELS 3  Xrotation Yrotation Zrotation
			JOINT RightFoot
			{
				OFFSET	2.11138	-38.9194	3.34707
				CHANNELS 3  Xrotation Yrotation Zrotation
				JOINT RightToeBase
				{
					OFFSET	0	-4.8091	-12.773
					CHANNELS 3  Xrotation Yrotation Zrotation
					End Site
					{
						OFFSET	0	-1.92364	-7.69456
					}
				}
			}
		}
	}
}
MOTION
Frames: 16
Frame Time: 0.020408
 133.003 81.6658 130.082 173.603 118.698 174.922 0.000460931 -0.00849114 3.10718 176.144 -179.983 -174.821 175.969 -179.949 -174.821 176.895 -179.992 -176.893 179.96 -179.999 -178.964 3.81815 8.70915 -13.2724 1.22627 29.4937 -2.06389 175.111 -175.612 170.16 0.508829 -0.0300152 39.1337 52.9491 -48.3996 42.6354 -0 6.98937 -4.30641 176.371 161.232 -172.183 37.9629 10.3548 -62.9463 67.2748 64.2301 -63.2193 -0 -6.48627 -17.0778 36.0698 16.7345 -18.9825 150.149 164.93 -178.631 165.381 178.364 -167.983 179.559 180 -180 17.1248 -0.22411 29.107 130.606 -164.21 177.188 25.522 -3.2333 -19.9058 1.16946 0 0
 132.909 81.8993 130.686 173.835 118.884 174.93 0.00015179 -0.00290582 2.99021 176.194 -179.994 -175.016 176.057 -179.983 -175.016 177.049 -179.997 -177.01 179.695 -179.995 -179.003 2.97161 8.61866 -13.3783 0.947497 29.3039 -2.01176 175.23 -175.354 170.385 1.53188 -0.24029 38.9129 52.3312 -48.0015 41.9024 -0 7.55908 -4.80399 176.596 161.078 -172.669 37.6546 10.5305 -62.1702 66.9623 64.154 -62.8202 -0 -6.40402 -17.655 36.0695 17.0662 -18.5986 150.38 165.301 -179.158 165.606 178.407 -167.98 179.566 180 -180 16.5662 0.191122 29.0436 131.545 -163.999 177.068 24.6423 -3.25439 -20.1618 1.16228 0 0
 132.634 82.1156 131.44 174.097 119.077 174.56 0.000430773 -0.00848358 2.90683 176.234 -179.983 -175.155 176.128 -179.949 -175.155 177.162 -179.992 -177.093 179.506 -179.992 -179.031 2.41136 8.7184 -13.0481 0.745961 28.9839 -1.86262 175.446 -175.285 170.821 2.28957 -0.420306 38.9167 51.5889 -47.5228 41.0289 -0 8.0212 -5.18811 176.774 161.053 -173.053 37.1247 10.828 -61.313 66.6599 64.0369 -62.4998 -0 -6.26945 -18.2111 35.8489 17.3806 -17.6575 150.43 165.206 -179.783 165.925 178.072 -167.609 179.645 180 -180 15.9744 0.617051 29.5837 132.558 -163.684 176.905 23.2822 -4.00137 -21.6389 1.16975 0 0
 132.754 82.2158 131.976 173.21 119.041 175.447 0.00110679 -0.0216003 2.93325 176.397 -179.957 -175.111 176.288 -179.871 -175.111 177.248 -179.978 -177.067 179.613 -179.993 -179.022 2.59804 8.7742 -12.6614 0.795778 28.6779 -1.78357 175.382 -174.918 170.667 3.24035 -0.626059 38.3815 50.8683 -47.0676 39.9203 -0 8.42683 -5.47014 177.156 160.839 -173.875 37.0716 11.0425 -60.3768 66.0823 63.8898 -61.6606 -0 -6.1366 -18.5948 36.2557 16.8355 -17.0723 150.569 166.009 -179.992 166.304 178.516 -168.467 179.517 180 -180 15.8822 1.47353 29.2993 133.184 -163.702 177.012 23.4272 -2.71583 -19.6667 1.13785 0 0
 132.252 82.3051 132.705 173.187 119.429 175.302 0.00127232 -0.024842 2.93193 176.486 -179.95 -175.113 176.37 -179.851 -175.113 177.283 -179.975 -177.068 179.696 -179.995 -179.023 2.73459 8.62022 -12.6667 0.846897 28.4577 -1.81894 175.53 -175.004 170.973 3.75324 -0.716422 38.3706 50.4151 -46.784 39.4038 -0 8.66219 -5.61353 177.442 160.738 -174.491 36.7835 11.2816 -59.7115 65.5764 63.7184 -61.1917 -0 -5.92934 -18.983 36.1371 17.3545 -16.6933 150.202 165.726 -179.756 167.054 178.139 -168.169 179.597 180 -180 15.6099 1.47164 30.4006 134.083 -163.681 176.501 22.094 -3.51092 -21.6844 1.14926 0 0
 131.788 82.3393 133.35 172.941 119.566 175.795 0.000765489 -0.0154113 2.84359 176.593 -179.969 -175.261 176.47 -179.908 -175.261 177.344 -179.985 -177.156 179.759 -179.996 -179.052 2.77361 8.39724 -12.7908 0.871025 28.2415 -1.88135 175.692 -175.209 171.318 4.05715 -0.87667 38.5496 50.1473 -46.6138 39.0907 -0 8.80384 -5.60922 177.712 160.773 -175.074 36.8076 11.4136 -59.0515 65.3123 63.5518 -60.8858 -0 -5.60393 -19.2411 36.2907 16.6207 -16.317 149.399 165.447 -179.763 168.059 177.969 -167.99 179.617 180 -180 15.3214 1.46742 30.7771 134.961 -163.658 176.228 21.125 -3.71914 -22.385 1.1585 0 0
 131.562 82.4208 133.923 172.583 119.621 175.986 0.00117807 -0.0231137 2.91777 176.664 -179.954 -175.137 176.551 -179.862 -175.137 177.411 -179.977 -177.082 179.735 -179.995 -179.027 2.57568 8.1372 -13.141 0.824082 28.1725 -1.97831 175.654 -175.772 171.276 4.43045 -0.857642 38.4496 50.2315 -46.7401 39.0571 -0 8.80355 -5.55456 178.204 160.524 -176.133 36.9022 11.529 -58.693 65.0728 63.3645 -60.5859 -0 -5.21374 -19.5339 36.2528 16.42 -15.6686 149.246 165.973 -179.717 168.843 178.42 -168.952 179.5 180 -180 14.8645 1.8524 31.1947 136.155 -163.948 176.285 20.991 -2.50148 -20.5375 1.12287 0 0
 131.158 82.4357 134.592 172.225 120.017 176.777 0.000507313 -0.0103084 2.81746 176.73 -179.979 -175.304 176.623 -179.938 -175.304 177.489 -179.99 -177.183 179.679 -179.995 -179.061 2.35776 8.25375 -13.2349 0.750036 28.4226 -1.96319 175.718 -176.219 171.434 4.48687 -1.03023 38.7684 50.2082 -46.7787 39.1167 -0 8.83029 -5.41909 178.499 160.443 -176.768 37.0756 11.5618 -58.1429 64.5963 63.1414 -60.0232 -0 -4.87196 -19.8415 36.691 16.2049 -15.92 148.372 165.919 -179.513 169.876 178.454 -169.14 179.498 180 -180 14.7516 1.80606 31.3919 137.223 -164.043 176.068 19.9656 -2.50916 -20.9783 1.12101 0 0
 130.463 82.422 135.021 171.983 120.2 177.289 180 179.998 -177.224 176.833 179.996 -175.373 176.733 179.988 -175.373 177.591 179.998 -177.224 179.64 -179.994 -179.075 2.19246 8.61305 -13.1965 0.680611 28.9333 -1.88917 175.801 -176.45 171.618 4.52821 -1.22154 38.9931 50.0052 -46.6988 38.731 -0 8.95292 -5.37373 178.782 160.364 -177.377 36.9894 11.4853 -57.8242 63.8067 62.8942 -59.1533 -0 -4.62515 -20.1077 36.8761 16.233 -15.9603 147.595 165.772 -179.459 170.997 178.402 -168.917 179.521 180 -180 14.3981 1.3855 31.8585 138.334 -164.099 175.848 18.9557 -2.89109 -22.1526 1.13666 0 0
 129.68 82.3296 135.7 171.863 120.614 177.342 180 179.993 -177.222 176.959 179.987 -175.37 176.862 179.96 -175.37 177.689 179.993 -177.222 179.649 -179.994 -179.074 2.16426 9.0582 -13.1456 0.652924 29.6002 -1.81371 175.792 -176.461 171.6 4.53516 -1.32221 39.1637 49.7428 -46.5447 38.4045 -0 9.14577 -5.33392 178.931 160.252 -177.698 37.0536 11.4277 -57.472 63.3997 62.7269 -58.5967 -0 -4.38537 -20.3254 37.1103 16.3942 -15.7618 146.295 165.582 -179.227 172.424 178.391 -168.891 179.542 180 -180 14.0887 1.32095 32.6411 139.363 -164.026 175.893 17.8727 -3.19201 -23.3677 1.16007 0 0
 129.142 82.3112 136.341 171.529 120.67 177.744 180 179.999 -177.259 177.059 179.999 -175.431 176.985 179.996 -175.431 177.818 179.999 -177.259 179.536 -179.993 -179.086 1.82969 9.62489 -12.9113 0.511521 30.2101 -1.64542 175.839 -176.689 171.71 4.10449 -1.51742 39.8557 49.3057 -46.2519 37.8714 -0 9.40222 -5.25311 178.815 160.373 -177.448 36.7552 11.437 -56.8788 62.843 62.4917 -57.9831 -0 -4.14814 -20.6522 37.1482 15.8078 -15.2735 145.55 165.471 -179.086 173.579 178.52 -169.195 179.498 180 -180 13.667 1.18441 33.0514 140.578 -164.034 175.916 17.1726 -2.83671 -23.1261 1.17173 0 0
 128.427 82.2593 137.04 171.174 121.123 178.017 0.000687488 -0.0141642 2.77878 177.141 -179.972 -175.369 177.06 -179.915 -175.369 177.835 -179.986 -177.221 179.65 -179.994 -179.074 2.05997 9.55445 -13.2417 0.600591 30.5 -1.75633 175.808 -177.169 171.678 3.54388 -1.52352 40.3227 48.9877 -46.0786 37.402 -0 9.55447 -5.08836 178.83 160.463 -177.483 36.6104 11.4483 -56.633 62.9624 62.4301 -57.9837 -0 -3.8778 -20.9697 37.3283 15.6917 -14.8159 144.576 165.368 -179.074 174.897 178.643 -169.602 179.467 180 -180 13.4964 1.24685 33.5812 141.689 -163.983 176.086 16.3052 -2.54753 -22.8847 1.18184 0 0
 127.732 82.2081 137.659 170.9 121.728 178.69 0.000854995 -0.0181618 2.6953 177.208 -179.964 -175.508 177.145 -179.891 -175.508 177.932 -179.982 -177.305 179.549 -179.993 -179.102 1.73129 9.77603 -13.1896 0.478613 30.7456 -1.67746 175.852 -177.454 171.786 2.92493 -1.58726 40.6466 48.6806 -45.9145 37.0258 -0 9.66515 -4.94787 178.708 160.316 -177.219 36.2217 11.5427 -56.1166 63.2729 62.386 -58.245 -0 -3.47701 -21.3394 37.689 15.3255 -14.9631 143.189 164.96 -179.002 176.353 178.62 -169.456 179.458 180 -180 13.3201 1.18914 33.5593 142.865 -163.881 176.205 15.2711 -2.61301 -23.5066 1.20063 0 0
 126.742 82.0618 138.125 170.969 122.359 178.653 0.000149283 -0.00311548 2.74331 177.307 -179.994 -175.428 177.244 -179.981 -175.428 178.013 -179.997 -177.257 179.549 -179.993 -179.086 1.67759 10.0659 -13.179 0.447524 31.2017 -1.62764 175.882 -177.583 171.854 2.36545 -1.89498 40.8022 48.6438 -45.9698 37.0212 -0 9.73246 -4.92676 178.686 159.866 -177.168 35.723 11.6961 -55.858 62.9666 62.2651 -57.8481 -0 -3.19057 -21.6878 37.4389 15.0744 -14.8079 141.802 164.905 -178.686 178.382 178.891 -170.095 179.393 180 -180 12.8939 0.961948 34.1716 143.934 -164.051 176.133 14.85 -1.84188 -22.2535 1.19526 0 0
 125.701 81.8362 138.323 171.406 122.559 178.527 0.000431404 -0.00901329 2.74026 177.396 -179.982 -175.433 177.347 -179.946 -175.433 178.109 -179.991 -177.26 179.493 -179.992 -179.087 1.40761 10.0318 -13.4017 0.362409 31.3374 -1.65375 175.742 -178.606 171.646 1.44024 -1.787 40.9008 48.7352 -46.1663 37.1795 -0 9.67035 -4.94076 178.813 159.501 -177.44 35.4193 11.7114 -55.8348 62.9037 62.1833 -57.8204 -0 -2.81831 -22.038 37.491 15.003 -15.0321 139.777 164.389 -178.505 0.151827 1.38948 11.2288 179.435 180 -180 12.156 0.0990583 34.7767 144.803 -163.917 175.884 13.7287 -2.92214 -25.4128 1.2431 0 0
 124.663 81.7261 139.032 171.658 122.862 178.518 0.000665565 -0.0140439 2.71332 177.502 -179.972 -175.478 177.481 -179.916 -175.478 178.258 -179.986 -177.287 179.343 -179.99 -179.096 0.848595 9.99821 -13.5632 0.177293 31.3466 -1.63367 175.696 -179.154 171.594 0.495936 -1.91669 41.2354 48.7162 -46.2576 37.3406 -0 9.68679 -4.89107 178.904 159.886 -177.638 34.625 11.1933 -55.7435 62.7612 62.1146 -57.6235 -0 -2.4627 -22.256 37.4668 14.8068 -14.4863 138.293 164.052 -178.785 1.94018 1.37984 11.2419 179.407 180 -180 11.4586 -0.677856 35.498 146.531 -163.908 175.708 12.4296 -2.7709 -25.7614 1.25029 0 0
